<svg width="3264" height="549" viewBox="0 0 3264 549" fill="none" xmlns="http://www.w3.org/2000/svg">
<path d="M576.194 286.291C613.845 337.167 644.171 399.609 644.171 433.578C644.171 497.26 510.115 548.886 448.495 548.886C386.874 548.886 252.817 497.399 252.817 433.716C252.817 415.018 262.006 387.681 276.547 358.389C368.577 345.428 473.73 320.74 576.194 286.291ZM307.602 116.01C543.482 32.8529 800.286 1.12658 882.203 45.184C935.092 73.6302 902.194 126.738 809.032 183.337C809.738 178.727 810.182 174.131 810.371 169.573C824.651 160.304 837.201 151.182 847.903 142.301C872.71 121.717 887.201 102.77 890.813 86.642C894.429 70.4978 887.035 58.0525 870.695 49.2641C854.355 40.4758 827.982 34.7597 791.055 32.9877C754.165 31.2175 708.724 33.5164 657.491 39.8881C555.142 52.6169 432.9 81.189 315.586 122.777C198.273 164.365 109.118 210.733 59.5601 251.855C34.7528 272.44 20.2612 291.386 16.649 307.514C13.0333 323.658 20.4274 336.104 36.7671 344.892C53.1072 353.68 79.4811 359.396 116.408 361.168C153.298 362.939 198.739 360.64 249.972 354.268C260.066 353.013 270.352 351.6 280.809 350.039C279.343 352.836 277.921 355.621 276.547 358.389C162.761 374.415 69.0364 372.516 25.2593 348.971C-56.9767 304.74 68.1907 200.879 304.829 116.991L307.602 116.01ZM448.494 199.996C464.614 199.996 479.936 203.569 493.774 209.996C517.705 219.631 545.437 246.305 570.521 278.787C471.453 312.421 369.964 336.732 280.809 350.039C311.859 290.811 362.887 226.288 403.164 210.019C417.015 203.577 432.354 199.996 448.494 199.996ZM809.032 183.337C806.892 197.308 802.353 211.407 795.25 224.952C765.223 282.207 700.79 307.89 651.336 282.318C643.436 278.233 636.398 273.086 630.268 267.09C702.476 240.018 763.083 211.253 809.032 183.337ZM623.571 259.77C625.666 262.329 627.899 264.773 630.268 267.09C621.237 270.476 612.024 273.837 602.635 277.165L599.86 278.146C591.992 280.919 584.101 283.633 576.194 286.291C574.32 283.76 572.428 281.256 570.521 278.787C577.654 276.365 584.774 273.896 591.877 271.378C602.683 267.547 613.251 263.674 623.571 259.77ZM616.158 132.345C646.184 75.0902 710.617 49.4066 760.072 74.9789C793.966 92.5053 812.026 129.559 810.371 169.573C764.616 199.27 701.087 230.444 623.571 259.77C597.151 227.49 592.781 176.921 616.158 132.345Z" fill="white"/>
<path d="M89.5907 257.378C121.826 313.436 187.211 336.625 235.632 309.171C284.053 281.718 297.174 214.018 264.939 157.959C232.703 101.901 167.318 78.7123 118.897 106.166C70.4761 133.62 57.3551 201.32 89.5907 257.378Z" fill="white"/>
<path d="M426.366 66.4527C438.904 112.282 418.845 157.765 381.563 168.042C344.282 178.318 303.896 149.497 291.358 103.668C278.821 57.8387 298.88 12.3558 336.162 2.07906C373.443 -8.19765 413.829 20.6234 426.366 66.4527Z" fill="white"/>
<path d="M457.732 66.4527C445.194 112.282 465.254 157.765 502.535 168.042C539.816 178.318 580.203 149.497 592.74 103.668C605.277 57.8387 585.218 12.3558 547.937 2.07906C510.655 -8.19765 470.269 20.6234 457.732 66.4527Z" fill="white"/>
<path d="M1103.7 419.271C1086.1 419.271 1068.9 416.271 1052.1 410.271C1035.7 403.871 1022.1 394.471 1011.3 382.071L1034.7 349.671C1045.1 359.671 1055.7 367.271 1066.5 372.471C1077.7 377.271 1088.7 379.671 1099.5 379.671C1107.5 379.671 1114.9 378.671 1121.7 376.671C1128.5 374.671 1133.9 371.471 1137.9 367.071C1142.3 362.271 1144.5 355.871 1144.5 347.871C1144.5 339.071 1141.5 332.071 1135.5 326.871C1129.9 321.671 1122.5 317.471 1113.3 314.271C1104.5 311.071 1095.1 308.071 1085.1 305.271C1064.7 298.471 1049.1 289.071 1038.3 277.071C1027.5 265.071 1022.1 250.471 1022.1 233.271C1022.1 220.071 1025.3 207.871 1031.7 196.671C1038.5 185.071 1048.3 175.671 1061.1 168.471C1074.3 161.271 1090.5 157.671 1109.7 157.671C1126.9 157.671 1142.3 159.871 1155.9 164.271C1169.5 168.271 1182.3 175.071 1194.3 184.671L1172.1 219.471C1164.9 211.871 1156.3 206.271 1146.3 202.671C1136.3 199.071 1127.3 197.071 1119.3 196.671C1112.5 196.271 1105.9 197.271 1099.5 199.671C1093.5 202.071 1088.5 205.471 1084.5 209.871C1080.5 214.271 1078.5 219.471 1078.5 225.471C1078.5 233.871 1081.3 240.671 1086.9 245.871C1092.5 251.071 1099.7 255.271 1108.5 258.471C1117.7 261.271 1126.7 264.271 1135.5 267.471C1147.9 271.071 1158.9 275.871 1168.5 281.871C1178.1 287.871 1185.7 295.271 1191.3 304.071C1197.3 312.871 1200.3 323.871 1200.3 337.071C1200.3 351.871 1196.7 365.671 1189.5 378.471C1182.7 390.871 1172.1 400.871 1157.7 408.471C1143.7 415.671 1125.7 419.271 1103.7 419.271Z" fill="white"/>
<path d="M1278.44 166.071H1334.24V414.471H1278.44V166.071ZM1274.24 76.0713C1274.24 67.2713 1277.64 59.8713 1284.44 53.8713C1291.64 47.8713 1299.44 44.8713 1307.84 44.8713C1316.24 44.8713 1323.64 47.8713 1330.04 53.8713C1336.84 59.8713 1340.24 67.2713 1340.24 76.0713C1340.24 85.2713 1336.84 92.8713 1330.04 98.8713C1323.64 104.471 1316.24 107.271 1307.84 107.271C1299.44 107.271 1291.64 104.271 1284.44 98.2713C1277.64 92.2713 1274.24 84.8713 1274.24 76.0713Z" fill="white"/>
<path d="M1550.18 537.471C1531.78 537.471 1515.58 535.271 1501.58 530.871C1487.58 526.871 1474.78 521.071 1463.18 513.471C1451.98 505.871 1441.18 497.271 1430.78 487.671L1463.18 449.871C1476.38 462.271 1489.78 471.871 1503.38 478.671C1516.98 485.471 1532.18 488.871 1548.98 488.871C1567.78 488.871 1583.58 485.671 1596.38 479.271C1609.58 473.271 1619.58 464.671 1626.38 453.471C1633.18 442.671 1636.58 430.071 1636.58 415.671L1637.18 348.471L1641.98 359.271C1634.78 376.471 1621.78 391.071 1602.98 403.071C1584.18 414.671 1561.38 420.471 1534.58 420.471C1511.78 420.471 1490.78 414.671 1471.58 403.071C1452.78 391.471 1437.58 375.871 1425.98 356.271C1414.78 336.271 1409.18 313.871 1409.18 289.071C1409.18 263.071 1415.18 240.271 1427.18 220.671C1439.18 200.671 1454.98 184.871 1474.58 173.271C1494.18 161.671 1515.58 155.871 1538.78 155.871C1560.78 155.871 1580.78 160.471 1598.78 169.671C1617.18 178.471 1630.58 189.871 1638.98 203.871L1635.98 214.071L1641.98 166.071H1692.98V416.271C1692.98 438.671 1687.18 459.071 1675.58 477.471C1663.98 495.871 1647.58 510.471 1626.38 521.271C1605.18 532.071 1579.78 537.471 1550.18 537.471ZM1464.98 287.871C1464.98 303.871 1468.78 318.471 1476.38 331.671C1483.98 344.871 1494.18 355.271 1506.98 362.871C1520.18 370.471 1534.78 374.271 1550.78 374.271C1565.58 374.271 1578.78 371.671 1590.38 366.471C1602.38 360.871 1612.38 353.471 1620.38 344.271C1628.38 334.671 1633.98 323.671 1637.18 311.271V262.071C1633.58 250.071 1627.58 239.671 1619.18 230.871C1610.78 221.671 1600.78 214.671 1589.18 209.871C1577.58 204.671 1564.78 202.071 1550.78 202.071C1534.78 202.071 1520.18 205.671 1506.98 212.871C1494.18 220.071 1483.98 230.271 1476.38 243.471C1468.78 256.271 1464.98 271.071 1464.98 287.871Z" fill="white"/>
<path d="M1839.17 166.071L1843.97 226.671L1841.57 217.071C1849.57 198.671 1862.57 184.071 1880.57 173.271C1898.57 162.071 1919.37 156.471 1942.97 156.471C1966.57 156.471 1985.77 163.471 2000.57 177.471C2015.77 191.071 2023.57 208.871 2023.97 230.871V414.471H1967.57V250.671C1967.17 237.071 1963.17 226.071 1955.57 217.671C1948.37 208.871 1936.97 204.471 1921.37 204.471C1906.97 204.471 1893.97 208.471 1882.37 216.471C1870.77 224.471 1861.57 235.471 1854.77 249.471C1848.37 263.471 1845.17 279.671 1845.17 298.071V414.471H1789.37V166.071H1839.17Z" fill="white"/>
<path d="M2099.42 287.871C2099.42 263.071 2105.22 240.671 2116.82 220.671C2128.82 200.671 2145.22 184.871 2166.02 173.271C2186.82 161.671 2210.42 155.871 2236.82 155.871C2264.02 155.871 2287.82 161.671 2308.22 173.271C2328.62 184.871 2344.42 200.671 2355.62 220.671C2366.82 240.671 2372.42 263.071 2372.42 287.871C2372.42 312.671 2366.82 335.271 2355.62 355.671C2344.42 375.671 2328.42 391.471 2307.62 403.071C2287.22 414.671 2263.42 420.471 2236.22 420.471C2209.82 420.471 2186.22 415.071 2165.42 404.271C2145.02 393.071 2128.82 377.671 2116.82 358.071C2105.22 338.071 2099.42 314.671 2099.42 287.871ZM2155.22 288.471C2155.22 304.471 2158.82 319.071 2166.02 332.271C2173.22 345.071 2182.82 355.271 2194.82 362.871C2207.22 370.471 2220.82 374.271 2235.62 374.271C2251.22 374.271 2265.02 370.471 2277.02 362.871C2289.42 355.271 2299.02 345.071 2305.82 332.271C2312.62 319.071 2316.02 304.471 2316.02 288.471C2316.02 272.471 2312.62 258.071 2305.82 245.271C2299.02 232.071 2289.42 221.671 2277.02 214.071C2265.02 206.071 2251.22 202.071 2235.62 202.071C2220.42 202.071 2206.62 206.071 2194.22 214.071C2182.22 222.071 2172.62 232.671 2165.42 245.871C2158.62 258.671 2155.22 272.871 2155.22 288.471Z" fill="white"/>
<path d="M2594.37 420.471C2575.57 420.471 2557.37 416.071 2539.77 407.271C2522.57 398.471 2509.17 386.671 2499.57 371.871L2503.17 354.471V533.871H2447.97V162.471H2495.97L2503.77 226.071L2497.77 208.671C2509.77 193.471 2524.97 180.871 2543.37 170.871C2561.77 160.871 2582.37 155.871 2605.17 155.871C2628.37 155.871 2649.17 161.471 2667.57 172.671C2686.37 183.871 2701.17 199.471 2711.97 219.471C2722.77 239.471 2728.17 262.871 2728.17 289.671C2728.17 316.471 2722.37 339.671 2710.77 359.271C2699.17 378.871 2683.17 394.071 2662.77 404.871C2642.77 415.271 2619.97 420.471 2594.37 420.471ZM2583.57 376.071C2599.57 376.071 2614.17 372.471 2627.37 365.271C2640.97 357.671 2651.77 347.471 2659.77 334.671C2667.77 321.471 2671.77 306.671 2671.77 290.271C2671.77 273.471 2667.97 258.671 2660.37 245.871C2652.77 232.671 2642.57 222.271 2629.77 214.671C2617.37 207.071 2603.37 203.271 2587.77 203.271C2573.37 203.271 2560.37 206.071 2548.77 211.671C2537.17 217.271 2527.57 225.071 2519.97 235.071C2512.37 244.671 2506.97 255.871 2503.77 268.671V310.071C2505.77 322.871 2510.57 334.271 2518.17 344.271C2525.77 354.271 2535.17 362.071 2546.37 367.671C2557.97 373.271 2570.37 376.071 2583.57 376.071Z" fill="white"/>
<path d="M2918.83 420.471C2890.43 420.471 2866.03 414.871 2845.63 403.671C2825.23 392.071 2809.43 376.471 2798.23 356.871C2787.43 336.871 2782.03 314.071 2782.03 288.471C2782.03 264.071 2788.23 241.871 2800.63 221.871C2813.03 201.871 2829.63 185.871 2850.43 173.871C2871.23 161.871 2894.43 155.871 2920.03 155.871C2952.83 155.871 2980.03 165.471 3001.63 184.671C3023.23 203.871 3037.83 230.271 3045.43 263.871L2840.83 335.871L2827.63 302.871L2995.63 241.671L2983.63 249.471C2978.83 236.271 2970.83 224.871 2959.63 215.271C2948.43 205.271 2933.83 200.271 2915.83 200.271C2900.63 200.271 2887.03 204.071 2875.03 211.671C2863.03 218.871 2853.63 228.871 2846.83 241.671C2840.03 254.471 2836.63 269.071 2836.63 285.471C2836.63 302.671 2840.23 317.871 2847.43 331.071C2854.63 343.871 2864.43 354.071 2876.83 361.671C2889.63 368.871 2904.03 372.471 2920.03 372.471C2930.83 372.471 2941.23 370.471 2951.23 366.471C2961.63 362.471 2971.23 357.271 2980.03 350.871L3005.83 392.271C2993.43 400.671 2979.43 407.471 2963.83 412.671C2948.63 417.871 2933.63 420.471 2918.83 420.471Z" fill="white"/>
<path d="M3139.35 56.8713H3195.15V167.271H3263.55V211.071H3195.15V414.471H3139.35V211.071H3093.75V167.271H3139.35V56.8713Z" fill="white"/>
</svg>
