<svg width="1116" height="898" viewBox="0 0 1116 898" fill="none" xmlns="http://www.w3.org/2000/svg">
<path d="M708.183 350.386C754.459 412.652 791.732 489.074 791.732 530.647C791.732 608.587 626.967 671.771 551.231 671.771L549.44 671.759C472.932 670.786 310.731 608.149 310.73 530.817C310.731 507.933 322.025 474.476 339.896 438.627C453.008 422.763 582.248 392.548 708.183 350.386ZM378.064 141.982C667.978 40.2073 983.608 1.37886 1084.29 55.3004C1149.29 90.1153 1108.86 155.115 994.355 224.386C995.223 218.744 995.77 213.118 996.002 207.54C1013.55 196.196 1028.98 185.028 1042.13 174.16C1072.62 148.967 1090.43 125.779 1094.87 106.04C1099.32 86.2812 1090.23 71.0495 1070.14 60.2936C1050.06 49.5377 1017.65 42.5414 972.263 40.3727C926.921 38.2061 871.071 41.0208 808.101 48.819C682.308 64.3974 532.066 99.3659 387.879 150.264C243.692 201.163 134.113 257.912 73.203 308.241C42.7133 333.434 24.9035 356.622 20.4638 376.361C16.0198 396.12 25.1074 411.35 45.1903 422.106C65.2734 432.862 97.6877 439.859 143.073 442.028C188.414 444.194 244.264 441.38 307.233 433.582C319.639 432.045 332.283 430.317 345.135 428.407C343.332 431.83 341.585 435.239 339.896 438.627C200.045 458.24 84.8509 455.916 31.0458 427.099C-70.0286 372.966 83.8105 245.852 374.655 143.183L378.064 141.982ZM551.231 244.771C571.042 244.771 589.872 249.143 606.879 257.007C636.292 268.799 670.379 301.445 701.211 341.201C579.45 382.366 454.713 412.12 345.135 428.407C383.296 355.922 446.007 276.957 495.51 257.042C512.536 249.156 531.392 244.771 551.231 244.771ZM994.355 224.386C991.726 241.484 986.146 258.738 977.416 275.314C940.511 345.387 861.32 376.821 800.537 345.524C790.828 340.525 782.177 334.225 774.642 326.886C863.39 293.754 937.881 258.551 994.355 224.386ZM766.412 317.928C768.986 321.06 771.731 324.051 774.642 326.886C763.542 331.031 752.22 335.144 740.681 339.217L737.27 340.418C727.601 343.812 717.901 347.133 708.183 350.386C705.88 347.287 703.555 344.224 701.211 341.201C709.977 338.237 718.729 335.217 727.458 332.135C740.74 327.447 753.728 322.707 766.412 317.928ZM757.301 161.975C794.205 91.902 873.397 60.4678 934.181 91.7653C975.84 113.216 998.037 158.566 996.002 207.54C939.766 243.886 861.684 282.037 766.412 317.928C733.94 278.422 728.569 216.531 757.301 161.975Z" fill="white"/>
<path d="M110.113 315C149.733 383.609 230.096 411.989 289.609 378.389C349.121 344.789 365.248 261.932 325.628 193.324C286.008 124.715 205.646 96.3346 146.133 129.935C86.6199 163.535 70.4934 246.391 110.113 315Z" fill="white"/>
<path d="M524.034 81.3301C539.443 137.42 514.789 193.085 468.968 205.663C423.146 218.24 373.509 182.967 358.1 126.877C342.69 70.7876 367.344 15.122 413.166 2.54452C458.987 -10.0329 508.625 25.2406 524.034 81.3301Z" fill="white"/>
<path d="M562.584 81.3301C547.175 137.42 571.829 193.085 617.65 205.663C663.472 218.24 713.109 182.967 728.518 126.877C743.927 70.7876 719.273 15.122 673.452 2.54452C627.631 -10.0329 577.993 25.2406 562.584 81.3301Z" fill="white"/>
<path d="M189.07 854.531C182.617 854.531 176.31 853.431 170.15 851.231C164.137 848.884 159.15 845.438 155.19 840.891L163.77 829.011C167.583 832.678 171.47 835.464 175.43 837.371C179.537 839.131 183.57 840.011 187.53 840.011C190.463 840.011 193.177 839.644 195.67 838.911C198.163 838.178 200.143 837.004 201.61 835.391C203.223 833.631 204.03 831.284 204.03 828.351C204.03 825.124 202.93 822.558 200.73 820.651C198.677 818.744 195.963 817.204 192.59 816.031C189.363 814.858 185.917 813.758 182.25 812.731C174.77 810.238 169.05 806.791 165.09 802.391C161.13 797.991 159.15 792.638 159.15 786.331C159.15 781.491 160.323 777.018 162.67 772.911C165.163 768.658 168.757 765.211 173.45 762.571C178.29 759.931 184.23 758.611 191.27 758.611C197.577 758.611 203.223 759.418 208.21 761.031C213.197 762.498 217.89 764.991 222.29 768.511L214.15 781.271C211.51 778.484 208.357 776.431 204.69 775.111C201.023 773.791 197.723 773.058 194.79 772.911C192.297 772.764 189.877 773.131 187.53 774.011C185.33 774.891 183.497 776.138 182.03 777.751C180.563 779.364 179.83 781.271 179.83 783.471C179.83 786.551 180.857 789.044 182.91 790.951C184.963 792.858 187.603 794.398 190.83 795.571C194.203 796.598 197.503 797.698 200.73 798.871C205.277 800.191 209.31 801.951 212.83 804.151C216.35 806.351 219.137 809.064 221.19 812.291C223.39 815.518 224.49 819.551 224.49 824.391C224.49 829.818 223.17 834.878 220.53 839.571C218.037 844.118 214.15 847.784 208.87 850.571C203.737 853.211 197.137 854.531 189.07 854.531Z" fill="white"/>
<path d="M253.14 761.691H273.6V852.771H253.14V761.691ZM251.6 728.691C251.6 725.464 252.847 722.751 255.34 720.551C257.98 718.351 260.84 717.251 263.92 717.251C267 717.251 269.713 718.351 272.06 720.551C274.553 722.751 275.8 725.464 275.8 728.691C275.8 732.064 274.553 734.851 272.06 737.051C269.713 739.104 267 740.131 263.92 740.131C260.84 740.131 257.98 739.031 255.34 736.831C252.847 734.631 251.6 731.918 251.6 728.691Z" fill="white"/>
<path d="M352.779 897.871C346.033 897.871 340.093 897.064 334.959 895.451C329.826 893.984 325.133 891.858 320.879 889.071C316.773 886.284 312.813 883.131 308.999 879.611L320.879 865.751C325.719 870.298 330.633 873.818 335.619 876.311C340.606 878.804 346.179 880.051 352.339 880.051C359.233 880.051 365.026 878.878 369.719 876.531C374.559 874.331 378.226 871.178 380.719 867.071C383.213 863.111 384.459 858.491 384.459 853.211L384.679 828.571L386.439 832.531C383.799 838.838 379.033 844.191 372.139 848.591C365.246 852.844 356.886 854.971 347.059 854.971C338.699 854.971 330.999 852.844 323.959 848.591C317.066 844.338 311.493 838.618 307.239 831.431C303.133 824.098 301.079 815.884 301.079 806.791C301.079 797.258 303.279 788.898 307.679 781.711C312.079 774.378 317.873 768.584 325.059 764.331C332.246 760.078 340.093 757.951 348.599 757.951C356.666 757.951 363.999 759.638 370.599 763.011C377.346 766.238 382.259 770.418 385.339 775.551L384.239 779.291L386.439 761.691H405.139V853.431C405.139 861.644 403.013 869.124 398.759 875.871C394.506 882.618 388.493 887.971 380.719 891.931C372.946 895.891 363.633 897.871 352.779 897.871ZM321.539 806.351C321.539 812.218 322.933 817.571 325.719 822.411C328.506 827.251 332.246 831.064 336.939 833.851C341.779 836.638 347.133 838.031 352.999 838.031C358.426 838.031 363.266 837.078 367.519 835.171C371.919 833.118 375.586 830.404 378.519 827.031C381.453 823.511 383.506 819.478 384.679 814.931V796.891C383.359 792.491 381.159 788.678 378.079 785.451C374.999 782.078 371.333 779.511 367.079 777.751C362.826 775.844 358.133 774.891 352.999 774.891C347.133 774.891 341.779 776.211 336.939 778.851C332.246 781.491 328.506 785.231 325.719 790.071C322.933 794.764 321.539 800.191 321.539 806.351Z" fill="white"/>
<path d="M458.744 761.691L460.504 783.911L459.624 780.391C462.557 773.644 467.324 768.291 473.924 764.331C480.524 760.224 488.15 758.171 496.804 758.171C505.457 758.171 512.497 760.738 517.924 765.871C523.497 770.858 526.357 777.384 526.504 785.451V852.771H505.824V792.711C505.677 787.724 504.21 783.691 501.424 780.611C498.784 777.384 494.604 775.771 488.884 775.771C483.604 775.771 478.837 777.238 474.584 780.171C470.33 783.104 466.957 787.138 464.464 792.271C462.117 797.404 460.944 803.344 460.944 810.091V852.771H440.484V761.691H458.744Z" fill="white"/>
<path d="M554.165 806.351C554.165 797.258 556.292 789.044 560.545 781.711C564.945 774.378 570.959 768.584 578.585 764.331C586.212 760.078 594.865 757.951 604.545 757.951C614.519 757.951 623.245 760.078 630.725 764.331C638.205 768.584 643.999 774.378 648.105 781.711C652.212 789.044 654.265 797.258 654.265 806.351C654.265 815.444 652.212 823.731 648.105 831.211C643.999 838.544 638.132 844.338 630.505 848.591C623.025 852.844 614.299 854.971 604.325 854.971C594.645 854.971 585.992 852.991 578.365 849.031C570.885 844.924 564.945 839.278 560.545 832.091C556.292 824.758 554.165 816.178 554.165 806.351ZM574.625 806.571C574.625 812.438 575.945 817.791 578.585 822.631C581.225 827.324 584.745 831.064 589.145 833.851C593.692 836.638 598.679 838.031 604.105 838.031C609.825 838.031 614.885 836.638 619.285 833.851C623.832 831.064 627.352 827.324 629.845 822.631C632.339 817.791 633.585 812.438 633.585 806.571C633.585 800.704 632.339 795.424 629.845 790.731C627.352 785.891 623.832 782.078 619.285 779.291C614.885 776.358 609.825 774.891 604.105 774.891C598.532 774.891 593.472 776.358 588.925 779.291C584.525 782.224 581.005 786.111 578.365 790.951C575.872 795.644 574.625 800.851 574.625 806.571Z" fill="white"/>
<path d="M735.648 854.971C728.755 854.971 722.081 853.358 715.628 850.131C709.321 846.904 704.408 842.578 700.888 837.151L702.208 830.771V896.551H681.968V760.371H699.568L702.428 783.691L700.228 777.311C704.628 771.738 710.201 767.118 716.948 763.451C723.695 759.784 731.248 757.951 739.608 757.951C748.115 757.951 755.741 760.004 762.488 764.111C769.381 768.218 774.808 773.938 778.768 781.271C782.728 788.604 784.708 797.184 784.708 807.011C784.708 816.838 782.581 825.344 778.328 832.531C774.075 839.718 768.208 845.291 760.728 849.251C753.395 853.064 745.035 854.971 735.648 854.971ZM731.688 838.691C737.555 838.691 742.908 837.371 747.748 834.731C752.735 831.944 756.695 828.204 759.628 823.511C762.561 818.671 764.028 813.244 764.028 807.231C764.028 801.071 762.635 795.644 759.848 790.951C757.061 786.111 753.321 782.298 748.628 779.511C744.081 776.724 738.948 775.331 733.228 775.331C727.948 775.331 723.181 776.358 718.928 778.411C714.675 780.464 711.155 783.324 708.368 786.991C705.581 790.511 703.601 794.618 702.428 799.311V814.491C703.161 819.184 704.921 823.364 707.708 827.031C710.495 830.698 713.941 833.558 718.048 835.611C722.301 837.664 726.848 838.691 731.688 838.691Z" fill="white"/>
<path d="M854.618 854.971C844.205 854.971 835.258 852.918 827.778 848.811C820.298 844.558 814.505 838.838 810.398 831.651C806.438 824.318 804.458 815.958 804.458 806.571C804.458 797.624 806.732 789.484 811.278 782.151C815.825 774.818 821.912 768.951 829.538 764.551C837.165 760.151 845.672 757.951 855.058 757.951C867.085 757.951 877.058 761.471 884.978 768.511C892.898 775.551 898.252 785.231 901.038 797.551L826.018 823.951L821.178 811.851L882.778 789.411L878.378 792.271C876.618 787.431 873.685 783.251 869.578 779.731C865.472 776.064 860.118 774.231 853.518 774.231C847.945 774.231 842.958 775.624 838.558 778.411C834.158 781.051 830.712 784.718 828.218 789.411C825.725 794.104 824.478 799.458 824.478 805.471C824.478 811.778 825.798 817.351 828.438 822.191C831.078 826.884 834.672 830.624 839.218 833.411C843.912 836.051 849.192 837.371 855.058 837.371C859.018 837.371 862.832 836.638 866.498 835.171C870.312 833.704 873.832 831.798 877.058 829.451L886.518 844.631C881.972 847.711 876.838 850.204 871.118 852.111C865.545 854.018 860.045 854.971 854.618 854.971Z" fill="white"/>
<path d="M935.475 721.651H955.935V762.131H981.015V778.191H955.935V852.771H935.475V778.191H918.755V762.131H935.475V721.651Z" fill="white"/>
</svg>
