<svg width="1116" height="672" viewBox="0 0 1116 672" fill="none" xmlns="http://www.w3.org/2000/svg">
<path d="M708.183 350.386C754.459 412.652 791.732 489.074 791.732 530.647C791.732 608.587 626.967 671.771 551.231 671.771L549.44 671.759C472.932 670.786 310.731 608.149 310.73 530.817C310.731 507.933 322.025 474.476 339.896 438.627C453.008 422.763 582.248 392.547 708.183 350.386ZM378.064 141.982C667.978 40.2072 983.608 1.37885 1084.29 55.3004C1149.29 90.1153 1108.86 155.115 994.355 224.386C995.223 218.744 995.77 213.118 996.002 207.54C1013.55 196.196 1028.98 185.028 1042.13 174.16C1072.62 148.967 1090.43 125.779 1094.87 106.04C1099.32 86.2812 1090.23 71.0495 1070.14 60.2936C1050.06 49.5377 1017.65 42.5414 972.263 40.3727C926.921 38.2061 871.071 41.0208 808.101 48.819C682.308 64.3974 532.066 99.3659 387.879 150.264C243.692 201.163 134.113 257.912 73.203 308.241C42.7133 333.434 24.9035 356.622 20.4638 376.361C16.0198 396.12 25.1074 411.35 45.1903 422.106C65.2734 432.862 97.6877 439.859 143.073 442.028C188.414 444.194 244.264 441.38 307.233 433.582C319.639 432.045 332.283 430.317 345.135 428.407C343.332 431.83 341.585 435.239 339.896 438.627C200.045 458.24 84.8509 455.916 31.0458 427.099C-70.0286 372.966 83.8105 245.852 374.655 143.183L378.064 141.982ZM551.231 244.771C571.042 244.771 589.872 249.143 606.879 257.007C636.292 268.799 670.379 301.445 701.211 341.201C579.45 382.366 454.713 412.12 345.135 428.407C383.296 355.922 446.007 276.957 495.51 257.042C512.536 249.156 531.392 244.771 551.231 244.771ZM994.355 224.386C991.726 241.483 986.146 258.738 977.416 275.314C940.511 345.387 861.32 376.821 800.537 345.524C790.828 340.525 782.177 334.225 774.642 326.886C863.39 293.754 937.881 258.551 994.355 224.386ZM766.412 317.928C768.986 321.06 771.731 324.051 774.642 326.886C763.542 331.031 752.22 335.144 740.681 339.217L737.27 340.418C727.601 343.812 717.901 347.133 708.183 350.386C705.88 347.287 703.555 344.223 701.211 341.201C709.977 338.237 718.729 335.217 727.458 332.135C740.74 327.447 753.728 322.707 766.412 317.928ZM757.301 161.975C794.205 91.9019 873.397 60.4678 934.181 91.7652C975.84 113.216 998.037 158.566 996.002 207.54C939.766 243.886 861.684 282.037 766.412 317.928C733.94 278.422 728.569 216.531 757.301 161.975Z" fill="white"/>
<path d="M110.113 315C149.733 383.609 230.096 411.989 289.608 378.389C349.121 344.789 365.248 261.932 325.628 193.324C286.008 124.715 205.645 96.3346 146.133 129.935C86.6198 163.535 70.4933 246.391 110.113 315Z" fill="white"/>
<path d="M524.034 81.3301C539.443 137.42 514.789 193.085 468.967 205.663C423.146 218.24 373.509 182.967 358.1 126.877C342.69 70.7876 367.344 15.122 413.166 2.54452C458.987 -10.0329 508.624 25.2406 524.034 81.3301Z" fill="white"/>
<path d="M562.584 81.3301C547.175 137.42 571.829 193.085 617.65 205.663C663.472 218.24 713.109 182.967 728.518 126.877C743.927 70.7876 719.273 15.122 673.452 2.54452C627.63 -10.0329 577.993 25.2406 562.584 81.3301Z" fill="white"/>
</svg>
